<svg version="1" xmlns="http://www.w3.org/2000/svg" width="341.333" height="341.333" viewBox="0 0 256.000000 256.000000"><path d="M147 36.9c-7.8 4.9-58.4 34.9-60.1 35.6-2.5.9-4.3-5.3-3.4-11.8 1.2-9.5 1.2-10.3-.2-13.8-.7-1.9-3-4.5-5-5.9-3.1-2.1-4.8-2.5-10.7-2.5-10.4.1-17.1 4.2-24.2 14.6-2.8 4.1-3.4 11.1-1.4 15 1.5 2.8 4.8 5.9 6.4 5.9.6 0 3.8 1.3 7.1 2.9 6.6 3.1 11.7 7.8 9.8 8.9-.6.4-7.7 4.5-15.7 9.2-8 4.7-14.5 8.8-14.6 9.2 0 .4 3.3 5.4 7.3 11 7.2 10.1 20.6 29.7 24 35 1.7 2.7 1.7 2.7-1.5 4.4-2.5 1.3-4.6 1.5-9.7.9-12.7-1.3-15.8-.4-20.5 5.9-2.9 3.9-2.8 15.4.2 21.2 4.1 7.9 13.2 15.2 19.8 15.8 5.6.5 11.2-2.6 13.1-7.2 4.2-10.2 6.4-14.1 9.4-16.6 2.5-2.1 3.4-2.4 4.1-1.4C91.3 188.3 105 215.9 105 221c0 1.5 5.4-1.4 26.5-13.8 17.6-10.5 26.5-16.3 26.5-17.4 0-2.5-4.5-7.4-8.2-8.8-9.9-3.9-11.8-5.8-11.8-11.9 0-3.6 5-11 9.5-14 6.8-4.6 15.6-4.4 20.4.3 2.4 2.5 2.6 3.2 2.6 12.1 0 8.3.3 9.7 2.1 11.6l2.1 2.1 21.4-12.8c11.8-7 22.9-13.6 24.7-14.7l3.3-1.9-2.3-3.8c-1.3-2.1-7.9-13.3-14.8-24.9-9.1-15.3-13-21.1-14.4-21.1-3.2 0-9.1 7-11.6 13.8-3 8.2-6.5 11.2-12.9 11.2-5.2 0-11.4-3.6-16.5-9.7-7.4-8.9-7.9-22.4-1-28.4 3.2-2.8 7.2-3.5 14.3-2.5 7.8 1.1 11 .5 14.5-2.7l2.6-2.2-13.4-22.2c-7.3-12.2-13.6-22.9-13.9-23.7-.9-2.3-2.6-2-7.7 1.3z"/></svg>